<svg xmlns="http://www.w3.org/2000/svg" viewBox="0 0 891 816">
  <path fill="#FFFFFF" d="M453.036,88.712 C493.774,30.664 560.66,0 634.251,0 C774.403,0 890.972,121.59 890.972,266.137 C890.972,266.155 890.972,266.173 890.972,266.191 C890.981,266.171 890.991,266.151 891,266.131 C891,270.252 890.93,273.372 890.878,275.668 C890.806,278.819 890.77,280.416 891,280.916 C890.469,311.319 885.222,336.438 875.899,369.628 C870.609,375.588 865.694,386.812 860.798,399.199 C853.074,411.197 850.151,417.009 845.697,428.77 C841.152,436.399 836.324,444.063 831.245,451.744 C793.796,508.544 743.708,565.074 693.667,615.252 C615.336,694.277 535.544,760.058 500.832,788.675 C491.247,796.576 485.1,801.644 483.368,803.375 C471.067,815.678 458.765,815.986 446.463,815.994 C446.139,815.998 445.814,816 445.486,816 C420.25,816 407.632,803.381 395.014,790.763 C394.051,789.8 391.601,787.779 387.858,784.783 C349.625,756.6 263.586,687.786 182.742,604.783 C121.066,542.02 61.622,470.007 29.092,399.588 C16.474,374.351 0.731,314.264 0,280.922 C0.269,280.655 0.227,279.049 0.144,275.844 C0.083,273.498 0,270.297 0,266.137 C0,121.524 116.502,0 256.721,0 C330.179,0 397.131,30.664 453.036,88.712z"/>
</svg>
