<svg xmlns="http://www.w3.org/2000/svg" viewBox="0 0 24 24">
  <path fill="#FFFFFF" d="M18.8571,17.3202C20.8406,15.3333,22,13.2638,22,10.8541C22,5.96406,17.5232,2,12,2C6.47686,2,2,5.96406,2,10.8542C2,16.8002,8,19.2002,11.429,19.2002V20.7211C11.429,22.3041,12.3493,22.1732,13.1196,21.7347C14.586,20.9,17.4106,18.7693,18.8571,17.3202Z"/>
  <path fill="#161823" d="M8.57142,11.0778C8.57142,11.8619,7.93154,12.4971,7.1422,12.4971C6.35418,12.4971,5.71427,11.8619,5.71427,11.0778C5.71427,10.2953,6.35418,9.66007,7.1422,9.66007C7.93154,9.66007,8.57142,10.2953,8.57142,11.0778ZM12,12.4971C11.2112,12.4971,10.5715,11.8619,10.5715,11.0778C10.5715,10.2953,11.2111,9.66007,12,9.66007C12.789,9.66007,13.4286,10.2953,13.4286,11.0778C13.4286,11.8619,12.789,12.4971,12,12.4971ZM18.2857,11.0778C18.2857,11.8619,17.6467,12.4971,16.8575,12.4971C16.0683,12.4971,15.4284,11.8619,15.4285,11.0778C15.4285,10.2953,16.0683,9.66007,16.8575,9.66007C17.6467,9.66007,18.2857,10.2953,18.2857,11.0778Z"/>
</svg>
